# xmcd
#
# Track frame offsets:
#	150
#	18285
#	28325
#	43570
#	55160
#	72167
#	84587
#	101147
#	113282
#	127947
#	139897
#	153760
#	163705
#	175815
#	194095
#	207397
#	225160
#	238410
#	250150
#	260757
#
# Disc length: 3658 seconds
#
# Revision: 3
# Processed by: cddbd v1.5.2PL0 Copyright (c) Steve Scherf et al.
# Submitted via: EasyCDDAExtractor 10.0.2.1
#
DISCID=120e4814
DTITLE=Waylon Jennings - Waylon Live (The Expanded Edition) - Disc 1
DYEAR=2003
DGENRE=Country
TTITLE0=T For Texas (Blue Yodel No.1)
TTITLE1=Stop The World (And Let Me Off)
TTITLE2=Lonesome, On'ry And Mean
TTITLE3=You Ask Me To
TTITLE4=Louisiana Women
TTITLE5=I'm A Ramblin' Man
TTITLE6=Me And Paul
TTITLE7=It's Not Supposed To Be That Way
TTITLE8=Slow Rollin' Low
TTITLE9=Rainy Day Woman
TTITLE10=Good Hearted Woman
TTITLE11=Mental Revenge
TTITLE12=Amanda
TTITLE13=This Time
TTITLE14=Laid Back Country Picker
TTITLE15=The Last Letter
TTITLE16=Honky Tonk Heroes
TTITLE17=Willie, The Wandering Gypsy and Me
TTITLE18=Donna On My Mind
TTITLE19=We Had It All
EXTD=RCA Nashville
EXTT0=
EXTT1=
EXTT2=
EXTT3=
EXTT4=
EXTT5=
EXTT6=
EXTT7=
EXTT8=
EXTT9=
EXTT10=
EXTT11=
EXTT12=
EXTT13=
EXTT14=
EXTT15=
EXTT16=
EXTT17=
EXTT18=
EXTT19=
PLAYORDER=
